<svg width="32" height="40" viewBox="0 0 32 40" fill="none" xmlns="http://www.w3.org/2000/svg">
<path d="M20.6158 11.1569C21.7889 11.158 22.9486 11.4126 24.0192 11.904C25.0898 12.3955 26.0474 13.1128 26.8295 14.0091L29.2778 11.7464C27.7106 9.95979 25.6546 8.6989 23.3779 8.12837C21.1013 7.55777 18.7097 7.70399 16.5153 8.5479C14.3209 9.39182 12.4255 10.8942 11.0766 12.8591C9.72768 14.824 8.98783 17.16 8.95352 19.5625C8.91921 21.965 9.5921 24.3223 10.8843 26.3268C12.1766 28.3313 14.0282 29.8899 16.1976 30.7993C18.3669 31.7087 20.7533 31.9266 23.0453 31.4246C25.3373 30.9226 27.4285 29.724 29.046 27.9852L26.6532 25.6558C25.7001 26.6777 24.5148 27.4415 23.2034 27.879C21.892 28.3164 20.4952 28.4139 19.138 28.1627C17.7808 27.9116 16.5056 27.3196 15.4261 26.4396C14.3467 25.5597 13.4967 24.4193 12.9523 23.1203C12.4078 21.8213 12.1858 20.4042 12.306 18.9958C12.4264 17.5873 12.8852 16.2313 13.6415 15.0491C14.398 13.8669 15.4283 12.8952 16.6405 12.221C17.8527 11.5468 19.2089 11.191 20.5881 11.1854L20.6158 11.1569Z" fill="#414042"/>
<path d="M8.74434 8.38177L6.32883 6.04578C4.44184 7.8475 2.94451 9.9891 1.92273 12.3477C0.901013 14.7062 0.375 17.2352 0.375 19.7893C0.375 22.3435 0.901013 24.8725 1.92273 27.231C2.94451 29.5896 4.44184 31.7312 6.32883 33.5329L8.74434 31.1969C7.17108 29.7053 5.92202 27.9289 5.06948 25.9707C4.217 24.0125 3.77803 21.9115 3.77803 19.7893C3.77803 17.6672 4.217 15.5662 5.06948 13.608C5.92202 11.6498 7.17108 9.87342 8.74434 8.38177Z" fill="#414042"/>
<path d="M31.4611 3.93962C28.1676 1.4209 24.1879 0.0651882 20.1027 0.0703271V3.46194C23.4735 3.45871 26.7579 4.5729 29.481 6.64334L31.4611 3.93962Z" fill="#414042"/>
<path d="M20.1027 36.1625V39.5084C23.924 39.5127 27.6636 38.3991 30.8633 36.3039L28.9837 33.533C26.3397 35.2533 23.2545 36.1668 20.1027 36.1625Z" fill="#414042"/>
<path d="M20.1027 32.03C17.5141 32.0283 14.9885 31.2545 12.8678 29.8132C10.7471 28.372 9.13368 26.333 8.24594 23.9722L5.15747 25.3646C6.32051 28.2964 8.371 30.8174 11.0388 32.5955C13.7067 34.3736 16.8667 35.3254 20.1027 35.3256V32.03Z" fill="#414042"/>
<path d="M7.85781 19.1918C8.05831 16.0484 9.43531 13.0998 11.7093 10.9441C13.9833 8.78855 16.9841 7.58736 20.1027 7.58432V4.25317C16.109 4.25305 12.268 5.80381 9.37481 8.58449C6.48159 11.3652 4.75757 15.163 4.55969 19.1918H7.85781Z" fill="#414042"/>
</svg>
